<svg width="52" height="52" viewBox="0 0 52 52" fill="none" xmlns="http://www.w3.org/2000/svg">
  <path d="M46.0416 22.75C45.1533 22.75 44.4166 23.4866 44.4166 24.375H41.0799C40.7549 21.4066 39.5849 18.6766 37.7866 16.4666L40.1483 14.105L40.1699 14.1266C40.7983 14.755 41.8383 14.755 42.4666 14.1266C43.0949 13.4983 43.0949 12.4583 42.4666 11.83L40.1699 9.53331C39.5416 8.90498 38.5016 8.90498 37.8733 9.53331C37.2449 10.1616 37.2449 11.18 37.8516 11.8083L35.4899 14.17C33.2799 12.3933 30.5716 11.2233 27.6033 10.8983V7.58331H27.6249C28.5133 7.58331 29.2499 6.84665 29.2499 5.95831C29.2499 5.06998 28.5133 4.33331 27.6249 4.33331H24.3749C23.4866 4.33331 22.7499 5.06998 22.7499 5.95831C22.7499 6.84665 23.4649 7.56165 24.3533 7.58331V10.9416C21.3849 11.245 18.6766 12.4366 16.4666 14.2133L14.1049 11.8516L14.1266 11.83C14.7549 11.2016 14.7549 10.1616 14.1266 9.53331C13.4983 8.90498 12.4583 8.90498 11.8299 9.53331L9.53325 11.83C8.90492 12.4583 8.90492 13.4983 9.53325 14.1266C10.1616 14.755 11.1799 14.755 11.8083 14.1483L14.1699 16.51C12.3933 18.72 11.2233 21.4066 10.9199 24.375H7.58325C7.58325 23.4866 6.84659 22.75 5.95825 22.75C5.06992 22.75 4.33325 23.4866 4.33325 24.375V27.625C4.33325 28.5133 5.06992 29.25 5.95825 29.25C6.84659 29.25 7.58325 28.5133 7.58325 27.625H10.9199C11.2449 30.5933 12.4149 33.28 14.1699 35.49L11.8083 37.8516C11.1799 37.2233 10.1616 37.245 9.53325 37.8733C8.90492 38.5016 8.90492 39.5416 9.53325 40.17L11.8299 42.4666C12.4583 43.095 13.4983 43.095 14.1266 42.4666C14.7549 41.8383 14.7549 40.7983 14.1266 40.17L14.1049 40.1483L16.4666 37.7866C18.6766 39.5633 21.3633 40.7333 24.3316 41.0583V44.4166C23.4433 44.4383 22.7283 45.1533 22.7283 46.0416C22.7283 46.93 23.4649 47.6666 24.3533 47.6666H27.6033C28.4916 47.6666 29.2283 46.93 29.2283 46.0416C29.2283 45.1533 28.4916 44.4166 27.6033 44.4166H27.5816V41.08C30.5499 40.7766 33.2583 39.585 35.4683 37.8083L37.8299 40.17C37.2016 40.7983 37.2233 41.8166 37.8516 42.445C38.4799 43.0733 39.5199 43.0733 40.1483 42.445L42.4449 40.1483C43.0733 39.52 43.0733 38.48 42.4449 37.8516C41.8166 37.2233 40.7766 37.2233 40.1483 37.8516L40.1266 37.8733L37.7649 35.5116C39.5416 33.3016 40.7333 30.5933 41.0583 27.6033H44.3949C44.3949 28.4916 45.1316 29.2283 46.0199 29.2283C46.9083 29.2283 47.6449 28.4916 47.6449 27.6033V24.3533C47.6666 23.4866 46.9299 22.75 46.0416 22.75ZM29.7916 17.3333C30.9833 17.3333 31.9583 18.3083 31.9583 19.5C31.9583 20.6916 30.9833 21.6666 29.7916 21.6666C28.5999 21.6666 27.6249 20.6916 27.6249 19.5C27.6249 18.3083 28.5999 17.3333 29.7916 17.3333ZM25.9999 28.1666C24.8083 28.1666 23.8333 27.1916 23.8333 26C23.8333 24.8083 24.8083 23.8333 25.9999 23.8333C27.1916 23.8333 28.1666 24.8083 28.1666 26C28.1666 27.1916 27.1916 28.1666 25.9999 28.1666ZM22.2083 17.3333C23.3999 17.3333 24.3749 18.3083 24.3749 19.5C24.3749 20.6916 23.3999 21.6666 22.2083 21.6666C21.0166 21.6666 20.0416 20.6916 20.0416 19.5C20.0416 18.3083 21.0166 17.3333 22.2083 17.3333ZM18.4166 28.1666C17.2249 28.1666 16.2499 27.1916 16.2499 26C16.2499 24.8083 17.2249 23.8333 18.4166 23.8333C19.6083 23.8333 20.5833 24.8083 20.5833 26C20.5833 27.1916 19.6083 28.1666 18.4166 28.1666ZM22.2083 34.6666C21.0166 34.6666 20.0416 33.6916 20.0416 32.5C20.0416 31.3083 21.0166 30.3333 22.2083 30.3333C23.3999 30.3333 24.3749 31.3083 24.3749 32.5C24.3749 33.6916 23.3999 34.6666 22.2083 34.6666ZM29.7916 34.6666C28.5999 34.6666 27.6249 33.6916 27.6249 32.5C27.6249 31.3083 28.5999 30.3333 29.7916 30.3333C30.9833 30.3333 31.9583 31.3083 31.9583 32.5C31.9583 33.6916 30.9833 34.6666 29.7916 34.6666ZM31.4166 26C31.4166 24.8083 32.3916 23.8333 33.5833 23.8333C34.7749 23.8333 35.7499 24.8083 35.7499 26C35.7499 27.1916 34.7749 28.1666 33.5833 28.1666C32.3916 28.1666 31.4166 27.1916 31.4166 26Z" fill="black" />
</svg>