<svg width="42" height="42" viewBox="0 0 42 42" fill="none" xmlns="http://www.w3.org/2000/svg">
  <path d="M21 4.9875C24.045 4.9875 26.5125 7.455 26.5125 10.5C26.5125 13.545 24.045 16.0125 21 16.0125C17.955 16.0125 15.4875 13.545 15.4875 10.5C15.4875 7.455 17.955 4.9875 21 4.9875ZM21 28.6125C28.7962 28.6125 37.0125 32.445 37.0125 34.125V37.0125H4.9875V34.125C4.9875 32.445 13.2037 28.6125 21 28.6125ZM21 0C15.1987 0 10.5 4.69875 10.5 10.5C10.5 16.3013 15.1987 21 21 21C26.8013 21 31.5 16.3013 31.5 10.5C31.5 4.69875 26.8013 0 21 0ZM21 23.625C13.9913 23.625 0 27.1425 0 34.125V42H42V34.125C42 27.1425 28.0088 23.625 21 23.625Z" fill="black" />
</svg>